<?xml version="1.0"?>
<svg xmlns="http://www.w3.org/2000/svg" xmlns:xlink="http://www.w3.org/1999/xlink" version="1.1" id="Capa_1" x="0px" y="0px" viewBox="0 0 47 47" style="enable-background:new 0 0 47 47;" xml:space="preserve" width="512px" height="512px" class=""><g><g>
	<path d="M1,47c-0.553,0-1-0.448-1-1V19c0-0.552,0.447-1,1-1s1,0.448,1,1v27C2,46.552,1.553,47,1,47z" data-original="#57B0E3" class="active-path" data-old_color="#00FF2B" fill="#00FF87"/>
	<path d="M28,47H1c-0.553,0-1-0.448-1-1s0.447-1,1-1h27c0.553,0,1,0.448,1,1S28.553,47,28,47z" data-original="#57B0E3" class="active-path" data-old_color="#00FF2B" fill="#00FF87"/>
	<path d="M1,47c-0.256,0-0.512-0.098-0.707-0.293c-0.391-0.391-0.391-1.023,0-1.414l45-45   c0.391-0.391,1.023-0.391,1.414,0s0.391,1.023,0,1.414l-45,45C1.512,46.902,1.256,47,1,47z" data-original="#57B0E3" class="active-path" data-old_color="#00FF2B" fill="#00FF87"/>
</g></g> </svg>
